HIERARCHY
ROOT root
{
	OFFSET	0	13.1	24.9
	CHANNELS 6  Xposition Yposition Zposition Xrotation Yrotation Zrotation
	JOINT spine_1
	{
		OFFSET	0	9.99999	0
		CHANNELS 3  Xrotation Yrotation Zrotation
		JOINT spine_2
		{
			OFFSET	0	112	-10
			CHANNELS 3  Xrotation Yrotation Zrotation
			JOINT spine_3
			{
				OFFSET	0	206.5	19.3
				CHANNELS 3  Xrotation Yrotation Zrotation
				JOINT spine_4
				{
					OFFSET	0	110.4	14.6
					CHANNELS 3  Xrotation Yrotation Zrotation
					JOINT neck_1
					{
						OFFSET	0	71.8	-50.3
						CHANNELS 3  Xrotation Yrotation Zrotation
						JOINT neck_2
						{
							OFFSET	0	86.2	-25.8
							CHANNELS 3  Xrotation Yrotation Zrotation
							JOINT head_ee
							{
								OFFSET	0	179.8	-8.7
								CHANNELS 3  Xrotation Yrotation Zrotation
								End Site
								{
									OFFSET	1	0	0
								}
							}
						}
					}
					JOINT left_clavicle
					{
						OFFSET	-43.2	22.4	-70.8
						CHANNELS 3  Xrotation Yrotation Zrotation
						JOINT left_shoulder
						{
							OFFSET	-93.9	-5.79999	48.7
							CHANNELS 3  Xrotation Yrotation Zrotation
							JOINT left_elbow
							{
								OFFSET	-291.4	-30.8	15.2
								CHANNELS 3  Xrotation Yrotation Zrotation
								JOINT left_lowarm_twist
								{
									OFFSET	-110.7	-3.89999	13.6
									CHANNELS 3  Xrotation Yrotation Zrotation
									JOINT left_hand
									{
										OFFSET	-110.7	-3.89999	13.6
										CHANNELS 3  Xrotation Yrotation Zrotation
										JOINT left_ee
										{
											OFFSET	-80.8	-5.10001	12.1
											CHANNELS 3  Xrotation Yrotation Zrotation
											End Site
											{
												OFFSET	1	0	0
											}
										}
									}
								}
							}
						}
					}
					JOINT right_clavicle
					{
						OFFSET	43.2	22.4	-70.8
						CHANNELS 3  Xrotation Yrotation Zrotation
						JOINT right_shoulder
						{
							OFFSET	93.9	-5.79999	48.7
							CHANNELS 3  Xrotation Yrotation Zrotation
							JOINT right_elbow
							{
								OFFSET	291.4	-30.8	15.2
								CHANNELS 3  Xrotation Yrotation Zrotation
								JOINT right_lowarm_twist
								{
									OFFSET	110.7	-3.89999	13.6
									CHANNELS 3  Xrotation Yrotation Zrotation
									JOINT right_hand
									{
										OFFSET	110.7	-3.89999	13.6
										CHANNELS 3  Xrotation Yrotation Zrotation
										JOINT right_ee
										{
											OFFSET	80.8	-5.10001	12.1
											CHANNELS 3  Xrotation Yrotation Zrotation
											End Site
											{
												OFFSET	1	0	0
											}
										}
									}
								}
							}
						}
					}
				}
			}
		}
	}
	JOINT left_hip
	{
		OFFSET	-82.8	-127.5	0.300001
		CHANNELS 3  Xrotation Yrotation Zrotation
		JOINT left_knee
		{
			OFFSET	-28.2	-396.7	2.2
			CHANNELS 3  Xrotation Yrotation Zrotation
			JOINT left_ankle
			{
				OFFSET	-11.7	-411.3	35.4
				CHANNELS 3  Xrotation Yrotation Zrotation
				JOINT left_toes
				{
					OFFSET	0	-60	-88.6
					CHANNELS 3  Xrotation Yrotation Zrotation
					JOINT left_foot_ee
					{
						OFFSET	-22.5	-16.5	-42.2
						CHANNELS 3  Xrotation Yrotation Zrotation
						End Site
						{
							OFFSET	1	0	0
						}
					}
				}
			}
		}
	}
	JOINT right_hip
	{
		OFFSET	82.8	-127.5	0.300001
		CHANNELS 3  Xrotation Yrotation Zrotation
		JOINT right_knee
		{
			OFFSET	28.2	-396.7	2.2
			CHANNELS 3  Xrotation Yrotation Zrotation
			JOINT right_ankle
			{
				OFFSET	11.7	-411.3	35.4
				CHANNELS 3  Xrotation Yrotation Zrotation
				JOINT right_toes
				{
					OFFSET	0	-60	-88.6
					CHANNELS 3  Xrotation Yrotation Zrotation
					JOINT right_foot_ee
					{
						OFFSET	22.5	-16.5	-42.2
						CHANNELS 3  Xrotation Yrotation Zrotation
						End Site
						{
							OFFSET	1	0	0
						}
					}
				}
			}
		}
	}
}
MOTION
Frames: 16
Frame Time: 0.02
3621.01 767.229 -670.915 -25.4196 46.1203 10.2286 5.14789 0.872344 3.9366 5.1563 0.620285 3.98403 5.1917 0.135019 4.02969 5.16987 0.769236 3.95801 -13.2904 4.69096 -10.0555 -13.1519 15.1915 -8.20838 -0.0 0.0 -0.0 0.798865 16.2215 3.15868 -36.5116 -31.2738 58.1514 0.580153 -16.0343 0.0817131 27.9576 0.12495 -3.53395 0.928765 19.5601 13.5615 -0.0 0.0 -0.0 11.8623 6.88535 -23.922 -31.1514 52.3099 -42.9198 0.891845 23.8353 -0.188232 49.7806 0.953149 6.09001 0.320075 11.7742 2.84711 0.0 0.0 0.0 33.5003 -5.86865 7.06623 -15.0791 0.321786 2.28502 1.77142 20.2223 -0.263752 15.2973 -0.0 -0.0 -0.0 0.0 -0.0 23.422 -22.1498 13.6163 5.03446 0.239811 0.734925 8.14425 5.12812 1.1961 -39.4927 0.0 0.0 0.0 0.0 0.0 
3611.84 763.377 -670.911 -25.7479 46.3446 11.1806 5.12591 0.807166 4.01422 5.13471 0.550311 4.05734 5.16568 0.0546661 4.09407 5.14298 0.700029 4.03425 -12.6441 5.9948 -8.54535 -12.5995 16.7932 -6.44913 -0.0 0.0 -0.0 0.219448 14.7866 2.09294 -35.9353 -30.5372 61.2053 0.662862 -18.1783 0.106046 27.9653 0.124747 -3.53491 0.971355 20.3617 14.0909 -0.0 0.0 -0.0 11.808 6.13303 -23.7803 -29.0991 51.4605 -44.7779 0.899768 24.0231 -0.191445 50.5403 1.00776 6.17051 0.0164522 12.4575 5.19035 0.0 0.0 0.0 34.0482 -5.63895 6.89203 -16.7971 0.320021 2.54859 3.77496 24.0112 -0.568464 15.3105 -0.0 -0.0 -0.0 0.0 -0.0 22.8102 -22.0018 13.2979 5.07979 0.242263 0.741444 8.51685 5.68844 1.25209 -39.7798 0.0 0.0 0.0 0.0 0.0 
3602.52 761.779 -670.104 -25.6552 46.2769 11.4541 5.06451 0.830016 3.96883 5.07308 0.575996 4.0135 5.10577 0.0812961 4.05374 5.08357 0.719973 3.99023 -12.3432 6.83681 -8.93505 -12.3053 18.6666 -6.6263 -0.0 0.0 -0.0 0.669586 14.6388 2.8016 -36.3771 -30.9906 62.4359 0.611773 -16.8598 0.0906659 28.5066 0.110093 -3.6025 0.823825 20.6138 13.2726 -0.0 0.0 -0.0 11.5748 5.78411 -23.2544 -30.3406 52.1384 -43.6553 0.941194 24.9964 -0.208631 48.5437 0.866537 5.95743 0.62891 14.9922 2.15111 0.0 0.0 0.0 34.3868 -6.88666 6.95361 -18.544 0.310124 2.81643 2.84926 26.4839 -0.435752 15.9954 -0.0 -0.0 -0.0 0.0 -0.0 23.1541 -23.7018 13.3982 4.91387 0.233314 0.717574 10.217 4.89651 1.4879 -39.2388 0.0 0.0 0.0 0.0 0.0 
3598.87 760.825 -673.736 -25.4304 46.1587 11.5971 5.10659 0.840111 3.99204 5.11527 0.584597 4.0373 5.14861 0.0899999 4.07834 5.12615 0.732444 4.01315 -11.8222 6.59868 -8.28053 -11.7797 17.8469 -6.14846 -0.0 0.0 -0.0 0.288587 13.1898 2.03127 -36.1735 -31.0014 63.5757 0.678239 -18.5714 0.110893 29.9831 0.0668786 -3.78615 1.26017 20.112 15.7931 -0.0 0.0 -0.0 11.8082 5.57382 -23.7622 -30.1632 52.2058 -44.4838 0.940894 24.9894 -0.208505 48.1009 0.836236 5.90953 0.716434 15.964 1.98489 0.0 0.0 0.0 33.8606 -4.74857 6.27254 -19.0104 0.306101 2.88788 3.07847 26.1565 -0.46967 16.6801 -0.0 -0.0 -0.0 0.0 -0.0 23.2089 -23.6327 13.1643 3.30563 0.150173 0.484911 9.40522 4.17691 1.37 -39.1472 0.0 0.0 0.0 0.0 0.0 
3589.91 756.875 -672.289 -25.2841 46.2084 11.4139 5.07942 0.824153 3.88184 5.08762 0.575667 3.92632 5.11971 0.0925911 3.96716 5.09847 0.717485 3.90294 -9.95321 7.12782 -9.02143 -9.81163 19.5009 -7.06848 -0.0 0.0 -0.0 0.60692 12.6224 2.49809 -35.9265 -30.6496 65.0538 0.610514 -16.827 0.0903008 30.4553 0.0520589 -3.84464 1.28066 20.7 16.1063 -0.0 0.0 -0.0 11.7559 5.44621 -23.6422 -29.6157 51.7873 -45.233 0.947329 25.1393 -0.21123 47.7743 0.814117 5.87404 0.804433 16.4967 1.62736 0.0 0.0 0.0 34.2109 -4.69756 7.09644 -20.3392 0.291453 3.09123 4.02238 28.0019 -0.619006 17.1479 -0.0 -0.0 -0.0 0.0 -0.0 24.3081 -26.9423 13.8443 3.00349 0.135285 0.44095 10.6658 3.92857 1.54496 -39.2082 0.0 0.0 0.0 0.0 0.0 
3583.37 757.957 -672.399 -25.1512 46.2854 11.2025 5.1532 0.830087 3.9816 5.16184 0.575257 4.02625 5.19433 0.0852971 4.06618 5.172 0.725884 4.00188 -10.4379 8.01553 -6.57654 -10.4392 19.4962 -4.33683 -0.0 0.0 -0.0 0.389189 12.1317 2.08417 -36.2797 -30.8456 65.0877 0.635034 -17.4625 0.0975292 30.434 0.0527381 -3.84201 1.27495 19.517 15.6947 -0.0 0.0 -0.0 11.4412 5.31148 -22.9457 -29.06 51.9854 -46.183 0.964253 25.5316 -0.218473 47.2553 0.779398 5.8174 0.713566 15.2713 1.70382 0.0 0.0 0.0 34.1756 -5.51281 7.37347 -21.5829 0.27347 3.28123 1.85055 25.2964 -0.281831 16.9013 -0.0 -0.0 -0.0 0.0 -0.0 24.9176 -27.1445 15.0007 1.78048 0.0774037 0.262239 10.5172 4.19419 1.52579 -39.3003 0.0 0.0 0.0 0.0 0.0 
3574.81 755.929 -670.372 -25.6355 46.8007 11.8347 5.18072 0.773429 3.9031 5.18904 0.523695 3.94432 5.2174 0.0454808 3.97862 5.19595 0.672769 3.92167 -9.74024 8.16808 -7.45658 -9.6791 20.4091 -5.29731 -0.0 0.0 -0.0 0.202293 11.797 1.7343 -35.7263 -31.0619 64.9851 0.677945 -18.5639 0.1108 31.1263 0.030173 -3.92755 1.39676 21.0007 16.9193 -0.0 0.0 -0.0 11.3521 4.98285 -22.74 -28.9347 51.7102 -46.8212 0.908897 24.2389 -0.195177 47.102 0.769242 5.80061 0.699423 15.7769 2.01772 0.0 0.0 0.0 34.1841 -5.02129 7.89058 -21.6036 0.273136 3.28439 2.64612 27.5372 -0.407411 16.6313 -0.0 -0.0 -0.0 0.0 -0.0 26.1866 -26.6586 15.9604 -2.0577 -0.0792386 -0.305829 12.3892 4.88036 1.78901 -38.5469 0.0 0.0 0.0 0.0 0.0 
3562.95 750.808 -672.856 -24.5618 47.4594 11.6874 5.102 0.61837 3.72707 5.10964 0.380125 3.7588 5.12773 -0.0809569 3.77708 5.1082 0.516153 3.74257 -9.5262 8.50859 -6.83658 -9.48455 20.6373 -4.64045 -0.0 0.0 -0.0 0.221893 12.1354 1.80481 -35.3017 -31.0618 64.9934 0.658062 -18.0553 0.104553 31.2996 0.024363 -3.94892 1.37489 20.7058 16.6924 -0.0 0.0 -0.0 11.184 4.27379 -22.3488 -28.2945 51.3024 -48.5414 0.877529 23.4944 -0.182485 46.7679 0.747259 5.76392 0.520525 15.1939 2.96588 0.0 0.0 0.0 33.2138 -2.38093 7.11458 -24.3482 0.218739 3.702 2.94545 25.7384 -0.448478 16.5321 -0.0 -0.0 -0.0 0.0 -0.0 27.4304 -25.6134 17.6885 -8.80812 -0.261217 -1.32521 16.9103 6.01617 2.40589 -37.0503 0.0 0.0 0.0 0.0 0.0 
3547.25 747.993 -667.707 -25.2578 46.2064 11.8447 5.68221 0.514306 3.58378 5.68931 0.285371 3.6092 5.69981 -0.120767 3.61843 5.68182 0.451837 3.59218 -9.40179 8.62009 -7.47924 -9.3303 21.2892 -5.27496 -0.0 0.0 -0.0 0.186217 13.0112 1.84285 -35.335 -30.4898 65.6999 0.649202 -17.8277 0.101824 32.2867 -0.00996642 -4.07032 1.522 20.0413 17.4062 -0.0 0.0 -0.0 10.8188 4.30596 -21.5604 -30.0743 50.7876 -48.0714 0.910858 24.2852 -0.195983 45.514 0.666689 5.62514 0.656186 15.6501 2.25262 0.0 0.0 0.0 33.7081 -1.02586 7.95814 -25.1506 0.199062 3.82356 1.50921 26.6921 -0.231817 16.6153 -0.0 -0.0 -0.0 0.0 -0.0 28.0259 -24.4538 18.572 -8.52861 -0.256075 -1.28263 16.3742 6.44223 2.33952 -37.4343 0.0 0.0 0.0 0.0 0.0 
3532.4 745.818 -667.884 -24.9655 45.3761 11.0308 5.97941 0.582938 3.63674 5.9867 0.350501 3.66641 6.0008 -0.0429576 3.68285 5.98228 0.538827 3.64353 -8.83808 10.2624 -8.02807 -8.73331 24.7619 -5.54881 -0.0 0.0 -0.0 0.0675306 13.2943 1.67922 -35.2757 -30.3124 65.3558 0.589331 -16.2746 0.0842666 32.1459 -0.00494111 -4.05304 1.10985 19.684 14.7221 -0.0 0.0 -0.0 10.7527 4.05648 -21.4098 -30.5912 49.6559 -49.2666 0.922665 24.563 -0.200865 44.972 0.632817 5.56462 0.626816 15.8663 2.54306 0.0 0.0 0.0 33.9004 -5.45227 9.88139 -26.7881 0.153628 4.07074 5.55706 28.6805 -0.855529 16.8655 -0.0 -0.0 -0.0 0.0 -0.0 29.1169 -25.7259 18.8427 -9.28433 -0.2695 -1.39781 17.5714 0.828453 2.44994 -36.5851 0.0 0.0 0.0 0.0 0.0 
3520.34 742.129 -660.613 -24.7291 44.951 11.192 6.10517 0.475961 3.43164 6.11168 0.256765 3.45494 6.11954 -0.106548 3.46282 6.10308 0.441348 3.43626 -10.3296 9.76304 -6.22363 -10.3868 22.5529 -3.54504 -0.0 0.0 -0.0 0.0226576 14.2641 1.71693 -34.6064 -30.1148 64.5102 0.586912 -16.2114 0.0835901 33.119 -0.0405318 -4.1722 1.40698 19.4064 16.486 -0.0 0.0 -0.0 10.5213 4.50675 -20.9265 -33.5617 49.6702 -47.4592 0.959577 25.4235 -0.216461 44.272 0.589909 5.48598 0.573228 15.8099 2.87793 0.0 0.0 0.0 33.2974 -1.85417 9.60957 -27.6535 0.126766 4.20084 5.89679 28.1774 -0.90408 17.8159 -0.0 -0.0 -0.0 0.0 -0.0 28.9329 -22.8333 18.7161 -10.7788 -0.291569 -1.62607 20.3441 1.84779 2.80723 -36.6309 0.0 0.0 0.0 0.0 0.0 
3503.88 744.144 -657.404 -24.6275 45.211 11.0143 6.1697 0.437365 3.37462 6.17601 0.221869 3.39558 6.18168 -0.131397 3.40028 6.16578 0.40695 3.37842 -10.5316 9.40194 -6.1836 -10.5907 21.8408 -3.56073 -0.0 0.0 -0.0 0.37398 13.3328 2.18711 -31.0131 -30.1539 65.769 0.391038 -10.9631 0.0375259 32.8586 -0.0308112 -4.14038 1.38838 18.2224 15.9903 -0.0 0.0 -0.0 10.1694 3.27146 -20.1399 -35.1826 49.116 -47.2858 0.944644 25.0768 -0.210091 42.8638 0.506543 5.32627 0.798879 16.2933 1.57597 0.0 0.0 0.0 31.7655 -1.53154 10.5357 -27.1931 0.1413 4.13169 4.57383 28.4256 -0.704784 14.7825 -0.0 -0.0 -0.0 0.0 -0.0 26.8988 -16.7446 17.9501 -11.844 -0.303661 -1.78906 20.4995 1.17482 2.82154 -37.9813 0.0 0.0 0.0 0.0 0.0 
3490.47 744.947 -660.631 -23.9034 45.1864 10.2891 6.3002 0.459122 3.1976 6.30586 0.254829 3.2203 6.31325 -0.0729447 3.22953 6.29896 0.437749 3.20059 -11.2334 10.9593 -3.05002 -11.4467 22.719 0.0727283 -0.0 0.0 -0.0 0.0896689 13.6779 1.75913 -27.6817 -30.0995 66.209 0.219693 -6.21118 0.0119197 32.7281 -0.0259916 -4.1244 1.10098 15.9997 13.4251 -0.0 0.0 -0.0 9.98341 1.2231 -19.6754 -36.9452 48.496 -47.2663 0.947193 25.1361 -0.211173 42.0167 0.458291 5.22922 0.585472 11.6266 0.993578 0.0 0.0 0.0 32.007 -9.73236 13.3225 -28.4862 0.0990654 4.32563 10.585 29.445 -1.61466 15.818 -0.0 -0.0 -0.0 0.0 -0.0 22.5425 -8.93927 14.8723 -10.9862 -0.294161 -1.65778 29.9687 -8.20694 3.88723 -39.2285 0.0 0.0 0.0 0.0 0.0 
3478.37 741.44 -660.021 -23.4341 46.1001 10.1461 6.27035 0.346011 2.99276 6.27532 0.15496 3.00869 6.27745 -0.15285 3.0088 6.26496 0.324034 2.99522 -11.5604 11.0369 -1.95398 -11.7984 22.166 1.21954 -0.0 0.0 -0.0 0.386641 12.5234 2.12176 -25.2158 -29.9926 64.7619 0.203591 -5.75911 0.0102406 32.7129 -0.0254317 -4.12254 0.724055 17.1668 11.4632 -0.0 0.0 -0.0 9.66653 1.22655 -19.0171 -37.9168 47.6676 -47.2902 0.93427 24.8348 -0.205714 41.8964 0.451558 5.21539 0.447052 11.7071 1.96161 0.0 0.0 0.0 31.5512 -8.48645 13.6465 -30.7998 0.0126035 4.67014 13.8859 28.8619 -2.08731 12.9326 -0.0 -0.0 -0.0 0.0 -0.0 21.5273 -1.16418 14.6775 -15.2165 -0.321935 -2.30611 35.8374 -14.9687 4.54078 -38.7161 0.0 0.0 0.0 0.0 0.0 
3471.78 740.549 -662.411 -24.1839 47.5578 11.3264 6.20456 0.265971 2.80254 6.20892 0.0871709 2.81378 6.20804 -0.203862 2.80774 6.19712 0.241948 2.80472 -11.1999 11.4563 -1.63769 -11.434 22.7392 1.57162 -0.0 0.0 -0.0 0.432995 12.3059 2.17587 -23.5296 -29.9888 64.2194 0.224258 -6.33921 0.0124187 32.7521 -0.0268742 -4.12734 0.408376 17.527 9.63579 -0.0 0.0 -0.0 9.46032 0.324692 -18.5582 -38.8742 47.2457 -47.7126 0.895276 23.9167 -0.18962 41.8348 0.44812 5.2083 0.209287 9.64426 2.68474 0.0 0.0 0.0 30.996 -10.8374 14.1045 -30.3586 0.0301631 4.60472 18.0684 27.6683 -2.65409 12.7245 -0.0 -0.0 -0.0 0.0 -0.0 20.2792 6.00137 13.7479 -18.1989 -0.312726 -2.76355 40.7324 -23.203 5.18126 -38.3054 0.0 0.0 0.0 0.0 0.0 
3462.23 743.479 -661.105 -24.8289 49.2608 12.2564 6.34056 0.221346 2.67496 6.34453 0.0507458 2.68361 6.34207 -0.220413 2.67503 6.33215 0.204669 2.67628 -12.1441 12.4093 0.444504 -12.4607 23.2697 4.05144 -0.0 0.0 -0.0 0.768277 11.6101 2.66706 -21.0638 -30.2339 62.8015 0.323671 -9.10931 0.0257842 33.884 -0.0699326 -4.26546 0.148861 16.9702 7.8268 -0.0 0.0 -0.0 9.06732 -0.294233 -17.733 -39.9399 45.774 -48.3232 0.843692 22.6818 -0.169216 41.7649 0.44423 5.20025 0.0524421 8.21077 3.13319 0.0 0.0 0.0 30.2167 -12.6512 14.9455 -29.3319 0.0690765 4.45196 20.3151 27.9157 -2.96246 10.8727 -0.0 -0.0 -0.0 0.0 -0.0 19.0675 10.8541 12.8834 -20.5553 -0.288624 -3.12427 40.9743 -26.5671 5.31534 -35.0973 0.0 0.0 0.0 0.0 0.0 
